<mxfile host="app.diagrams.net" modified="2020-10-05T00:58:28.765Z" agent="5.0 (Windows NT 10.0; Win64; x64) AppleWebKit/537.36 (KHTML, like Gecko) Chrome/85.0.4183.121 Safari/537.36" etag="Wic19wHsWQYczQhcYSxf" version="13.7.7" type="github">
  <diagram id="eifiabzFLnweSR9lxWKg" name="Page-1">
    <mxGraphModel dx="1001" dy="624" grid="1" gridSize="10" guides="1" tooltips="1" connect="1" arrows="1" fold="1" page="1" pageScale="1" pageWidth="827" pageHeight="1169" math="0" shadow="0">
      <root>
        <mxCell id="0" />
        <mxCell id="1" parent="0" />
        <mxCell id="dDyjCE8Tok5BIl-7DvfX-1" value="Customer" style="shape=table;startSize=30;container=1;collapsible=1;childLayout=tableLayout;fixedRows=1;rowLines=0;fontStyle=1;align=center;resizeLast=1;" vertex="1" parent="1">
          <mxGeometry x="110" y="100" width="180" height="190" as="geometry" />
        </mxCell>
        <mxCell id="dDyjCE8Tok5BIl-7DvfX-2" value="" style="shape=partialRectangle;collapsible=0;dropTarget=0;pointerEvents=0;fillColor=none;top=0;left=0;bottom=1;right=0;points=[[0,0.5],[1,0.5]];portConstraint=eastwest;" vertex="1" parent="dDyjCE8Tok5BIl-7DvfX-1">
          <mxGeometry y="30" width="180" height="30" as="geometry" />
        </mxCell>
        <mxCell id="dDyjCE8Tok5BIl-7DvfX-3" value="PK" style="shape=partialRectangle;connectable=0;fillColor=none;top=0;left=0;bottom=0;right=0;fontStyle=1;overflow=hidden;" vertex="1" parent="dDyjCE8Tok5BIl-7DvfX-2">
          <mxGeometry width="30" height="30" as="geometry" />
        </mxCell>
        <mxCell id="dDyjCE8Tok5BIl-7DvfX-4" value="CustomerID" style="shape=partialRectangle;connectable=0;fillColor=none;top=0;left=0;bottom=0;right=0;align=left;spacingLeft=6;fontStyle=5;overflow=hidden;" vertex="1" parent="dDyjCE8Tok5BIl-7DvfX-2">
          <mxGeometry x="30" width="150" height="30" as="geometry" />
        </mxCell>
        <mxCell id="dDyjCE8Tok5BIl-7DvfX-5" value="" style="shape=partialRectangle;collapsible=0;dropTarget=0;pointerEvents=0;fillColor=none;top=0;left=0;bottom=0;right=0;points=[[0,0.5],[1,0.5]];portConstraint=eastwest;" vertex="1" parent="dDyjCE8Tok5BIl-7DvfX-1">
          <mxGeometry y="60" width="180" height="30" as="geometry" />
        </mxCell>
        <mxCell id="dDyjCE8Tok5BIl-7DvfX-6" value="" style="shape=partialRectangle;connectable=0;fillColor=none;top=0;left=0;bottom=0;right=0;editable=1;overflow=hidden;" vertex="1" parent="dDyjCE8Tok5BIl-7DvfX-5">
          <mxGeometry width="30" height="30" as="geometry" />
        </mxCell>
        <mxCell id="dDyjCE8Tok5BIl-7DvfX-7" value="CustomerFirstName" style="shape=partialRectangle;connectable=0;fillColor=none;top=0;left=0;bottom=0;right=0;align=left;spacingLeft=6;overflow=hidden;" vertex="1" parent="dDyjCE8Tok5BIl-7DvfX-5">
          <mxGeometry x="30" width="150" height="30" as="geometry" />
        </mxCell>
        <mxCell id="dDyjCE8Tok5BIl-7DvfX-8" value="" style="shape=partialRectangle;collapsible=0;dropTarget=0;pointerEvents=0;fillColor=none;top=0;left=0;bottom=0;right=0;points=[[0,0.5],[1,0.5]];portConstraint=eastwest;" vertex="1" parent="dDyjCE8Tok5BIl-7DvfX-1">
          <mxGeometry y="90" width="180" height="30" as="geometry" />
        </mxCell>
        <mxCell id="dDyjCE8Tok5BIl-7DvfX-9" value="" style="shape=partialRectangle;connectable=0;fillColor=none;top=0;left=0;bottom=0;right=0;editable=1;overflow=hidden;" vertex="1" parent="dDyjCE8Tok5BIl-7DvfX-8">
          <mxGeometry width="30" height="30" as="geometry" />
        </mxCell>
        <mxCell id="dDyjCE8Tok5BIl-7DvfX-10" value="CustomerLastName" style="shape=partialRectangle;connectable=0;fillColor=none;top=0;left=0;bottom=0;right=0;align=left;spacingLeft=6;overflow=hidden;" vertex="1" parent="dDyjCE8Tok5BIl-7DvfX-8">
          <mxGeometry x="30" width="150" height="30" as="geometry" />
        </mxCell>
        <mxCell id="dDyjCE8Tok5BIl-7DvfX-11" value="" style="shape=partialRectangle;collapsible=0;dropTarget=0;pointerEvents=0;fillColor=none;top=0;left=0;bottom=0;right=0;points=[[0,0.5],[1,0.5]];portConstraint=eastwest;" vertex="1" parent="dDyjCE8Tok5BIl-7DvfX-1">
          <mxGeometry y="120" width="180" height="30" as="geometry" />
        </mxCell>
        <mxCell id="dDyjCE8Tok5BIl-7DvfX-12" value="FK" style="shape=partialRectangle;connectable=0;fillColor=none;top=0;left=0;bottom=0;right=0;editable=1;overflow=hidden;" vertex="1" parent="dDyjCE8Tok5BIl-7DvfX-11">
          <mxGeometry width="30" height="30" as="geometry" />
        </mxCell>
        <mxCell id="dDyjCE8Tok5BIl-7DvfX-13" value="AddressID" style="shape=partialRectangle;connectable=0;fillColor=none;top=0;left=0;bottom=0;right=0;align=left;spacingLeft=6;overflow=hidden;" vertex="1" parent="dDyjCE8Tok5BIl-7DvfX-11">
          <mxGeometry x="30" width="150" height="30" as="geometry" />
        </mxCell>
        <mxCell id="dDyjCE8Tok5BIl-7DvfX-73" style="shape=partialRectangle;collapsible=0;dropTarget=0;pointerEvents=0;fillColor=none;top=0;left=0;bottom=0;right=0;points=[[0,0.5],[1,0.5]];portConstraint=eastwest;" vertex="1" parent="dDyjCE8Tok5BIl-7DvfX-1">
          <mxGeometry y="150" width="180" height="30" as="geometry" />
        </mxCell>
        <mxCell id="dDyjCE8Tok5BIl-7DvfX-74" style="shape=partialRectangle;connectable=0;fillColor=none;top=0;left=0;bottom=0;right=0;editable=1;overflow=hidden;" vertex="1" parent="dDyjCE8Tok5BIl-7DvfX-73">
          <mxGeometry width="30" height="30" as="geometry" />
        </mxCell>
        <mxCell id="dDyjCE8Tok5BIl-7DvfX-75" value="Phone" style="shape=partialRectangle;connectable=0;fillColor=none;top=0;left=0;bottom=0;right=0;align=left;spacingLeft=6;overflow=hidden;" vertex="1" parent="dDyjCE8Tok5BIl-7DvfX-73">
          <mxGeometry x="30" width="150" height="30" as="geometry" />
        </mxCell>
        <mxCell id="dDyjCE8Tok5BIl-7DvfX-14" value="Agent" style="shape=table;startSize=30;container=1;collapsible=1;childLayout=tableLayout;fixedRows=1;rowLines=0;fontStyle=1;align=center;resizeLast=1;" vertex="1" parent="1">
          <mxGeometry x="324" y="100" width="180" height="130" as="geometry" />
        </mxCell>
        <mxCell id="dDyjCE8Tok5BIl-7DvfX-15" value="" style="shape=partialRectangle;collapsible=0;dropTarget=0;pointerEvents=0;fillColor=none;top=0;left=0;bottom=1;right=0;points=[[0,0.5],[1,0.5]];portConstraint=eastwest;" vertex="1" parent="dDyjCE8Tok5BIl-7DvfX-14">
          <mxGeometry y="30" width="180" height="30" as="geometry" />
        </mxCell>
        <mxCell id="dDyjCE8Tok5BIl-7DvfX-16" value="PK" style="shape=partialRectangle;connectable=0;fillColor=none;top=0;left=0;bottom=0;right=0;fontStyle=1;overflow=hidden;" vertex="1" parent="dDyjCE8Tok5BIl-7DvfX-15">
          <mxGeometry width="30" height="30" as="geometry" />
        </mxCell>
        <mxCell id="dDyjCE8Tok5BIl-7DvfX-17" value="AgentID" style="shape=partialRectangle;connectable=0;fillColor=none;top=0;left=0;bottom=0;right=0;align=left;spacingLeft=6;fontStyle=5;overflow=hidden;" vertex="1" parent="dDyjCE8Tok5BIl-7DvfX-15">
          <mxGeometry x="30" width="150" height="30" as="geometry" />
        </mxCell>
        <mxCell id="dDyjCE8Tok5BIl-7DvfX-18" value="" style="shape=partialRectangle;collapsible=0;dropTarget=0;pointerEvents=0;fillColor=none;top=0;left=0;bottom=0;right=0;points=[[0,0.5],[1,0.5]];portConstraint=eastwest;" vertex="1" parent="dDyjCE8Tok5BIl-7DvfX-14">
          <mxGeometry y="60" width="180" height="30" as="geometry" />
        </mxCell>
        <mxCell id="dDyjCE8Tok5BIl-7DvfX-19" value="" style="shape=partialRectangle;connectable=0;fillColor=none;top=0;left=0;bottom=0;right=0;editable=1;overflow=hidden;" vertex="1" parent="dDyjCE8Tok5BIl-7DvfX-18">
          <mxGeometry width="30" height="30" as="geometry" />
        </mxCell>
        <mxCell id="dDyjCE8Tok5BIl-7DvfX-20" value="AgentFirstName" style="shape=partialRectangle;connectable=0;fillColor=none;top=0;left=0;bottom=0;right=0;align=left;spacingLeft=6;overflow=hidden;" vertex="1" parent="dDyjCE8Tok5BIl-7DvfX-18">
          <mxGeometry x="30" width="150" height="30" as="geometry" />
        </mxCell>
        <mxCell id="dDyjCE8Tok5BIl-7DvfX-21" value="" style="shape=partialRectangle;collapsible=0;dropTarget=0;pointerEvents=0;fillColor=none;top=0;left=0;bottom=0;right=0;points=[[0,0.5],[1,0.5]];portConstraint=eastwest;" vertex="1" parent="dDyjCE8Tok5BIl-7DvfX-14">
          <mxGeometry y="90" width="180" height="30" as="geometry" />
        </mxCell>
        <mxCell id="dDyjCE8Tok5BIl-7DvfX-22" value="" style="shape=partialRectangle;connectable=0;fillColor=none;top=0;left=0;bottom=0;right=0;editable=1;overflow=hidden;" vertex="1" parent="dDyjCE8Tok5BIl-7DvfX-21">
          <mxGeometry width="30" height="30" as="geometry" />
        </mxCell>
        <mxCell id="dDyjCE8Tok5BIl-7DvfX-23" value="AgentLastName" style="shape=partialRectangle;connectable=0;fillColor=none;top=0;left=0;bottom=0;right=0;align=left;spacingLeft=6;overflow=hidden;" vertex="1" parent="dDyjCE8Tok5BIl-7DvfX-21">
          <mxGeometry x="30" width="150" height="30" as="geometry" />
        </mxCell>
        <mxCell id="dDyjCE8Tok5BIl-7DvfX-90" value="" style="edgeStyle=elbowEdgeStyle;fontSize=12;html=1;endArrow=ERmandOne;startArrow=ERmandOne;exitX=0;exitY=0.5;exitDx=0;exitDy=0;entryX=0;entryY=0.5;entryDx=0;entryDy=0;rounded=1;" edge="1" parent="1" source="dDyjCE8Tok5BIl-7DvfX-54" target="dDyjCE8Tok5BIl-7DvfX-11">
          <mxGeometry width="100" height="100" relative="1" as="geometry">
            <mxPoint x="290" y="490" as="sourcePoint" />
            <mxPoint x="340" y="330" as="targetPoint" />
            <Array as="points">
              <mxPoint x="20" y="340" />
            </Array>
          </mxGeometry>
        </mxCell>
        <object label="Address" apple="apple" id="dDyjCE8Tok5BIl-7DvfX-53">
          <mxCell style="shape=table;startSize=30;container=1;collapsible=1;childLayout=tableLayout;fixedRows=1;rowLines=0;fontStyle=1;align=center;resizeLast=1;" vertex="1" parent="1">
            <mxGeometry x="70" y="405" width="180" height="180" as="geometry" />
          </mxCell>
        </object>
        <mxCell id="dDyjCE8Tok5BIl-7DvfX-54" value="" style="shape=partialRectangle;collapsible=0;dropTarget=0;pointerEvents=0;fillColor=none;top=0;left=0;bottom=1;right=0;points=[[0,0.5],[1,0.5]];portConstraint=eastwest;" vertex="1" parent="dDyjCE8Tok5BIl-7DvfX-53">
          <mxGeometry y="30" width="180" height="30" as="geometry" />
        </mxCell>
        <mxCell id="dDyjCE8Tok5BIl-7DvfX-55" value="PK" style="shape=partialRectangle;connectable=0;fillColor=none;top=0;left=0;bottom=0;right=0;fontStyle=1;overflow=hidden;" vertex="1" parent="dDyjCE8Tok5BIl-7DvfX-54">
          <mxGeometry width="30" height="30" as="geometry" />
        </mxCell>
        <mxCell id="dDyjCE8Tok5BIl-7DvfX-56" value="AddressID" style="shape=partialRectangle;connectable=0;fillColor=none;top=0;left=0;bottom=0;right=0;align=left;spacingLeft=6;fontStyle=5;overflow=hidden;" vertex="1" parent="dDyjCE8Tok5BIl-7DvfX-54">
          <mxGeometry x="30" width="150" height="30" as="geometry" />
        </mxCell>
        <mxCell id="dDyjCE8Tok5BIl-7DvfX-57" value="" style="shape=partialRectangle;collapsible=0;dropTarget=0;pointerEvents=0;fillColor=none;top=0;left=0;bottom=0;right=0;points=[[0,0.5],[1,0.5]];portConstraint=eastwest;" vertex="1" parent="dDyjCE8Tok5BIl-7DvfX-53">
          <mxGeometry y="60" width="180" height="30" as="geometry" />
        </mxCell>
        <mxCell id="dDyjCE8Tok5BIl-7DvfX-58" value="" style="shape=partialRectangle;connectable=0;fillColor=none;top=0;left=0;bottom=0;right=0;editable=1;overflow=hidden;" vertex="1" parent="dDyjCE8Tok5BIl-7DvfX-57">
          <mxGeometry width="30" height="30" as="geometry" />
        </mxCell>
        <mxCell id="dDyjCE8Tok5BIl-7DvfX-59" value="StreetNumber" style="shape=partialRectangle;connectable=0;fillColor=none;top=0;left=0;bottom=0;right=0;align=left;spacingLeft=6;overflow=hidden;" vertex="1" parent="dDyjCE8Tok5BIl-7DvfX-57">
          <mxGeometry x="30" width="150" height="30" as="geometry" />
        </mxCell>
        <mxCell id="dDyjCE8Tok5BIl-7DvfX-60" value="" style="shape=partialRectangle;collapsible=0;dropTarget=0;pointerEvents=0;fillColor=none;top=0;left=0;bottom=0;right=0;points=[[0,0.5],[1,0.5]];portConstraint=eastwest;" vertex="1" parent="dDyjCE8Tok5BIl-7DvfX-53">
          <mxGeometry y="90" width="180" height="30" as="geometry" />
        </mxCell>
        <mxCell id="dDyjCE8Tok5BIl-7DvfX-61" value="" style="shape=partialRectangle;connectable=0;fillColor=none;top=0;left=0;bottom=0;right=0;editable=1;overflow=hidden;" vertex="1" parent="dDyjCE8Tok5BIl-7DvfX-60">
          <mxGeometry width="30" height="30" as="geometry" />
        </mxCell>
        <mxCell id="dDyjCE8Tok5BIl-7DvfX-62" value="City" style="shape=partialRectangle;connectable=0;fillColor=none;top=0;left=0;bottom=0;right=0;align=left;spacingLeft=6;overflow=hidden;" vertex="1" parent="dDyjCE8Tok5BIl-7DvfX-60">
          <mxGeometry x="30" width="150" height="30" as="geometry" />
        </mxCell>
        <mxCell id="dDyjCE8Tok5BIl-7DvfX-63" value="" style="shape=partialRectangle;collapsible=0;dropTarget=0;pointerEvents=0;fillColor=none;top=0;left=0;bottom=0;right=0;points=[[0,0.5],[1,0.5]];portConstraint=eastwest;" vertex="1" parent="dDyjCE8Tok5BIl-7DvfX-53">
          <mxGeometry y="120" width="180" height="30" as="geometry" />
        </mxCell>
        <mxCell id="dDyjCE8Tok5BIl-7DvfX-64" value="" style="shape=partialRectangle;connectable=0;fillColor=none;top=0;left=0;bottom=0;right=0;editable=1;overflow=hidden;" vertex="1" parent="dDyjCE8Tok5BIl-7DvfX-63">
          <mxGeometry width="30" height="30" as="geometry" />
        </mxCell>
        <mxCell id="dDyjCE8Tok5BIl-7DvfX-65" value="State" style="shape=partialRectangle;connectable=0;fillColor=none;top=0;left=0;bottom=0;right=0;align=left;spacingLeft=6;overflow=hidden;" vertex="1" parent="dDyjCE8Tok5BIl-7DvfX-63">
          <mxGeometry x="30" width="150" height="30" as="geometry" />
        </mxCell>
        <mxCell id="dDyjCE8Tok5BIl-7DvfX-66" style="shape=partialRectangle;collapsible=0;dropTarget=0;pointerEvents=0;fillColor=none;top=0;left=0;bottom=0;right=0;points=[[0,0.5],[1,0.5]];portConstraint=eastwest;" vertex="1" parent="dDyjCE8Tok5BIl-7DvfX-53">
          <mxGeometry y="150" width="180" height="30" as="geometry" />
        </mxCell>
        <mxCell id="dDyjCE8Tok5BIl-7DvfX-67" style="shape=partialRectangle;connectable=0;fillColor=none;top=0;left=0;bottom=0;right=0;editable=1;overflow=hidden;" vertex="1" parent="dDyjCE8Tok5BIl-7DvfX-66">
          <mxGeometry width="30" height="30" as="geometry" />
        </mxCell>
        <mxCell id="dDyjCE8Tok5BIl-7DvfX-68" value="ZipCode" style="shape=partialRectangle;connectable=0;fillColor=none;top=0;left=0;bottom=0;right=0;align=left;spacingLeft=6;overflow=hidden;" vertex="1" parent="dDyjCE8Tok5BIl-7DvfX-66">
          <mxGeometry x="30" width="150" height="30" as="geometry" />
        </mxCell>
        <mxCell id="dDyjCE8Tok5BIl-7DvfX-94" value="" style="edgeStyle=elbowEdgeStyle;fontSize=12;html=1;endArrow=ERzeroToMany;startArrow=ERmandOne;exitX=1.006;exitY=0.267;exitDx=0;exitDy=0;exitPerimeter=0;entryX=0;entryY=0.5;entryDx=0;entryDy=0;" edge="1" parent="1" source="dDyjCE8Tok5BIl-7DvfX-73" target="dDyjCE8Tok5BIl-7DvfX-44">
          <mxGeometry width="100" height="100" relative="1" as="geometry">
            <mxPoint x="330" y="390" as="sourcePoint" />
            <mxPoint x="430" y="290" as="targetPoint" />
          </mxGeometry>
        </mxCell>
        <mxCell id="dDyjCE8Tok5BIl-7DvfX-40" value="Checkout" style="shape=table;startSize=30;container=1;collapsible=1;childLayout=tableLayout;fixedRows=1;rowLines=0;fontStyle=1;align=center;resizeLast=1;" vertex="1" parent="1">
          <mxGeometry x="324" y="405" width="180" height="280" as="geometry" />
        </mxCell>
        <mxCell id="dDyjCE8Tok5BIl-7DvfX-41" value="" style="shape=partialRectangle;collapsible=0;dropTarget=0;pointerEvents=0;fillColor=none;top=0;left=0;bottom=1;right=0;points=[[0,0.5],[1,0.5]];portConstraint=eastwest;" vertex="1" parent="dDyjCE8Tok5BIl-7DvfX-40">
          <mxGeometry y="30" width="180" height="30" as="geometry" />
        </mxCell>
        <mxCell id="dDyjCE8Tok5BIl-7DvfX-42" value="PK" style="shape=partialRectangle;connectable=0;fillColor=none;top=0;left=0;bottom=0;right=0;fontStyle=1;overflow=hidden;" vertex="1" parent="dDyjCE8Tok5BIl-7DvfX-41">
          <mxGeometry width="30" height="30" as="geometry" />
        </mxCell>
        <mxCell id="dDyjCE8Tok5BIl-7DvfX-43" value="CheckoutID" style="shape=partialRectangle;connectable=0;fillColor=none;top=0;left=0;bottom=0;right=0;align=left;spacingLeft=6;fontStyle=5;overflow=hidden;" vertex="1" parent="dDyjCE8Tok5BIl-7DvfX-41">
          <mxGeometry x="30" width="150" height="30" as="geometry" />
        </mxCell>
        <mxCell id="dDyjCE8Tok5BIl-7DvfX-44" value="" style="shape=partialRectangle;collapsible=0;dropTarget=0;pointerEvents=0;fillColor=none;top=0;left=0;bottom=0;right=0;points=[[0,0.5],[1,0.5]];portConstraint=eastwest;" vertex="1" parent="dDyjCE8Tok5BIl-7DvfX-40">
          <mxGeometry y="60" width="180" height="30" as="geometry" />
        </mxCell>
        <mxCell id="dDyjCE8Tok5BIl-7DvfX-45" value="FK" style="shape=partialRectangle;connectable=0;fillColor=none;top=0;left=0;bottom=0;right=0;editable=1;overflow=hidden;" vertex="1" parent="dDyjCE8Tok5BIl-7DvfX-44">
          <mxGeometry width="30" height="30" as="geometry" />
        </mxCell>
        <mxCell id="dDyjCE8Tok5BIl-7DvfX-46" value="CustomerID" style="shape=partialRectangle;connectable=0;fillColor=none;top=0;left=0;bottom=0;right=0;align=left;spacingLeft=6;overflow=hidden;" vertex="1" parent="dDyjCE8Tok5BIl-7DvfX-44">
          <mxGeometry x="30" width="150" height="30" as="geometry" />
        </mxCell>
        <mxCell id="dDyjCE8Tok5BIl-7DvfX-47" value="" style="shape=partialRectangle;collapsible=0;dropTarget=0;pointerEvents=0;fillColor=none;top=0;left=0;bottom=0;right=0;points=[[0,0.5],[1,0.5]];portConstraint=eastwest;" vertex="1" parent="dDyjCE8Tok5BIl-7DvfX-40">
          <mxGeometry y="90" width="180" height="30" as="geometry" />
        </mxCell>
        <mxCell id="dDyjCE8Tok5BIl-7DvfX-48" value="FK" style="shape=partialRectangle;connectable=0;fillColor=none;top=0;left=0;bottom=0;right=0;editable=1;overflow=hidden;" vertex="1" parent="dDyjCE8Tok5BIl-7DvfX-47">
          <mxGeometry width="30" height="30" as="geometry" />
        </mxCell>
        <mxCell id="dDyjCE8Tok5BIl-7DvfX-49" value="AgentID" style="shape=partialRectangle;connectable=0;fillColor=none;top=0;left=0;bottom=0;right=0;align=left;spacingLeft=6;overflow=hidden;" vertex="1" parent="dDyjCE8Tok5BIl-7DvfX-47">
          <mxGeometry x="30" width="150" height="30" as="geometry" />
        </mxCell>
        <mxCell id="dDyjCE8Tok5BIl-7DvfX-50" value="" style="shape=partialRectangle;collapsible=0;dropTarget=0;pointerEvents=0;fillColor=none;top=0;left=0;bottom=0;right=0;points=[[0,0.5],[1,0.5]];portConstraint=eastwest;" vertex="1" parent="dDyjCE8Tok5BIl-7DvfX-40">
          <mxGeometry y="120" width="180" height="30" as="geometry" />
        </mxCell>
        <mxCell id="dDyjCE8Tok5BIl-7DvfX-51" value="FK" style="shape=partialRectangle;connectable=0;fillColor=none;top=0;left=0;bottom=0;right=0;editable=1;overflow=hidden;" vertex="1" parent="dDyjCE8Tok5BIl-7DvfX-50">
          <mxGeometry width="30" height="30" as="geometry" />
        </mxCell>
        <mxCell id="dDyjCE8Tok5BIl-7DvfX-52" value="EquipmentID" style="shape=partialRectangle;connectable=0;fillColor=none;top=0;left=0;bottom=0;right=0;align=left;spacingLeft=6;overflow=hidden;" vertex="1" parent="dDyjCE8Tok5BIl-7DvfX-50">
          <mxGeometry x="30" width="150" height="30" as="geometry" />
        </mxCell>
        <mxCell id="dDyjCE8Tok5BIl-7DvfX-82" style="shape=partialRectangle;collapsible=0;dropTarget=0;pointerEvents=0;fillColor=none;top=0;left=0;bottom=0;right=0;points=[[0,0.5],[1,0.5]];portConstraint=eastwest;" vertex="1" parent="dDyjCE8Tok5BIl-7DvfX-40">
          <mxGeometry y="150" width="180" height="30" as="geometry" />
        </mxCell>
        <mxCell id="dDyjCE8Tok5BIl-7DvfX-83" style="shape=partialRectangle;connectable=0;fillColor=none;top=0;left=0;bottom=0;right=0;editable=1;overflow=hidden;" vertex="1" parent="dDyjCE8Tok5BIl-7DvfX-82">
          <mxGeometry width="30" height="30" as="geometry" />
        </mxCell>
        <mxCell id="dDyjCE8Tok5BIl-7DvfX-84" value="DailyRate" style="shape=partialRectangle;connectable=0;fillColor=none;top=0;left=0;bottom=0;right=0;align=left;spacingLeft=6;overflow=hidden;" vertex="1" parent="dDyjCE8Tok5BIl-7DvfX-82">
          <mxGeometry x="30" width="150" height="30" as="geometry" />
        </mxCell>
        <mxCell id="dDyjCE8Tok5BIl-7DvfX-79" style="shape=partialRectangle;collapsible=0;dropTarget=0;pointerEvents=0;fillColor=none;top=0;left=0;bottom=0;right=0;points=[[0,0.5],[1,0.5]];portConstraint=eastwest;" vertex="1" parent="dDyjCE8Tok5BIl-7DvfX-40">
          <mxGeometry y="180" width="180" height="30" as="geometry" />
        </mxCell>
        <mxCell id="dDyjCE8Tok5BIl-7DvfX-80" style="shape=partialRectangle;connectable=0;fillColor=none;top=0;left=0;bottom=0;right=0;editable=1;overflow=hidden;" vertex="1" parent="dDyjCE8Tok5BIl-7DvfX-79">
          <mxGeometry width="30" height="30" as="geometry" />
        </mxCell>
        <mxCell id="dDyjCE8Tok5BIl-7DvfX-81" value="Deposit" style="shape=partialRectangle;connectable=0;fillColor=none;top=0;left=0;bottom=0;right=0;align=left;spacingLeft=6;overflow=hidden;" vertex="1" parent="dDyjCE8Tok5BIl-7DvfX-79">
          <mxGeometry x="30" width="150" height="30" as="geometry" />
        </mxCell>
        <mxCell id="dDyjCE8Tok5BIl-7DvfX-76" style="shape=partialRectangle;collapsible=0;dropTarget=0;pointerEvents=0;fillColor=none;top=0;left=0;bottom=0;right=0;points=[[0,0.5],[1,0.5]];portConstraint=eastwest;" vertex="1" parent="dDyjCE8Tok5BIl-7DvfX-40">
          <mxGeometry y="210" width="180" height="30" as="geometry" />
        </mxCell>
        <mxCell id="dDyjCE8Tok5BIl-7DvfX-77" style="shape=partialRectangle;connectable=0;fillColor=none;top=0;left=0;bottom=0;right=0;editable=1;overflow=hidden;" vertex="1" parent="dDyjCE8Tok5BIl-7DvfX-76">
          <mxGeometry width="30" height="30" as="geometry" />
        </mxCell>
        <mxCell id="dDyjCE8Tok5BIl-7DvfX-78" value="CheckoutDate" style="shape=partialRectangle;connectable=0;fillColor=none;top=0;left=0;bottom=0;right=0;align=left;spacingLeft=6;overflow=hidden;" vertex="1" parent="dDyjCE8Tok5BIl-7DvfX-76">
          <mxGeometry x="30" width="150" height="30" as="geometry" />
        </mxCell>
        <mxCell id="dDyjCE8Tok5BIl-7DvfX-85" style="shape=partialRectangle;collapsible=0;dropTarget=0;pointerEvents=0;fillColor=none;top=0;left=0;bottom=0;right=0;points=[[0,0.5],[1,0.5]];portConstraint=eastwest;" vertex="1" parent="dDyjCE8Tok5BIl-7DvfX-40">
          <mxGeometry y="240" width="180" height="30" as="geometry" />
        </mxCell>
        <mxCell id="dDyjCE8Tok5BIl-7DvfX-86" style="shape=partialRectangle;connectable=0;fillColor=none;top=0;left=0;bottom=0;right=0;editable=1;overflow=hidden;" vertex="1" parent="dDyjCE8Tok5BIl-7DvfX-85">
          <mxGeometry width="30" height="30" as="geometry" />
        </mxCell>
        <mxCell id="dDyjCE8Tok5BIl-7DvfX-87" value="ReturnDate" style="shape=partialRectangle;connectable=0;fillColor=none;top=0;left=0;bottom=0;right=0;align=left;spacingLeft=6;overflow=hidden;" vertex="1" parent="dDyjCE8Tok5BIl-7DvfX-85">
          <mxGeometry x="30" width="150" height="30" as="geometry" />
        </mxCell>
        <mxCell id="dDyjCE8Tok5BIl-7DvfX-95" value="" style="fontSize=12;html=1;endArrow=ERzeroToMany;startArrow=ERmandOne;exitX=0.5;exitY=1;exitDx=0;exitDy=0;elbow=vertical;entryX=0.5;entryY=0;entryDx=0;entryDy=0;" edge="1" parent="1" source="dDyjCE8Tok5BIl-7DvfX-14" target="dDyjCE8Tok5BIl-7DvfX-40">
          <mxGeometry width="100" height="100" relative="1" as="geometry">
            <mxPoint x="550" y="230" as="sourcePoint" />
            <mxPoint x="676" y="610" as="targetPoint" />
          </mxGeometry>
        </mxCell>
        <mxCell id="dDyjCE8Tok5BIl-7DvfX-96" value="" style="edgeStyle=entityRelationEdgeStyle;fontSize=12;html=1;endArrow=ERmandOne;startArrow=ERmandOne;entryX=0;entryY=0.5;entryDx=0;entryDy=0;exitX=1;exitY=0.5;exitDx=0;exitDy=0;" edge="1" parent="1" source="dDyjCE8Tok5BIl-7DvfX-82" target="dDyjCE8Tok5BIl-7DvfX-31">
          <mxGeometry width="100" height="100" relative="1" as="geometry">
            <mxPoint x="430" y="480" as="sourcePoint" />
            <mxPoint x="530" y="380" as="targetPoint" />
          </mxGeometry>
        </mxCell>
        <mxCell id="dDyjCE8Tok5BIl-7DvfX-27" value="Equipment" style="shape=table;startSize=30;container=1;collapsible=1;childLayout=tableLayout;fixedRows=1;rowLines=0;fontStyle=1;align=center;resizeLast=1;" vertex="1" parent="1">
          <mxGeometry x="570" y="330" width="180" height="130" as="geometry" />
        </mxCell>
        <mxCell id="dDyjCE8Tok5BIl-7DvfX-28" value="" style="shape=partialRectangle;collapsible=0;dropTarget=0;pointerEvents=0;fillColor=none;top=0;left=0;bottom=1;right=0;points=[[0,0.5],[1,0.5]];portConstraint=eastwest;" vertex="1" parent="dDyjCE8Tok5BIl-7DvfX-27">
          <mxGeometry y="30" width="180" height="30" as="geometry" />
        </mxCell>
        <mxCell id="dDyjCE8Tok5BIl-7DvfX-29" value="PK" style="shape=partialRectangle;connectable=0;fillColor=none;top=0;left=0;bottom=0;right=0;fontStyle=1;overflow=hidden;" vertex="1" parent="dDyjCE8Tok5BIl-7DvfX-28">
          <mxGeometry width="30" height="30" as="geometry" />
        </mxCell>
        <mxCell id="dDyjCE8Tok5BIl-7DvfX-30" value="EquipmentID" style="shape=partialRectangle;connectable=0;fillColor=none;top=0;left=0;bottom=0;right=0;align=left;spacingLeft=6;fontStyle=5;overflow=hidden;" vertex="1" parent="dDyjCE8Tok5BIl-7DvfX-28">
          <mxGeometry x="30" width="150" height="30" as="geometry" />
        </mxCell>
        <mxCell id="dDyjCE8Tok5BIl-7DvfX-31" value="" style="shape=partialRectangle;collapsible=0;dropTarget=0;pointerEvents=0;fillColor=none;top=0;left=0;bottom=0;right=0;points=[[0,0.5],[1,0.5]];portConstraint=eastwest;" vertex="1" parent="dDyjCE8Tok5BIl-7DvfX-27">
          <mxGeometry y="60" width="180" height="30" as="geometry" />
        </mxCell>
        <mxCell id="dDyjCE8Tok5BIl-7DvfX-32" value="" style="shape=partialRectangle;connectable=0;fillColor=none;top=0;left=0;bottom=0;right=0;editable=1;overflow=hidden;" vertex="1" parent="dDyjCE8Tok5BIl-7DvfX-31">
          <mxGeometry width="30" height="30" as="geometry" />
        </mxCell>
        <mxCell id="dDyjCE8Tok5BIl-7DvfX-33" value="EquipmentName" style="shape=partialRectangle;connectable=0;fillColor=none;top=0;left=0;bottom=0;right=0;align=left;spacingLeft=6;overflow=hidden;" vertex="1" parent="dDyjCE8Tok5BIl-7DvfX-31">
          <mxGeometry x="30" width="150" height="30" as="geometry" />
        </mxCell>
        <mxCell id="dDyjCE8Tok5BIl-7DvfX-34" value="" style="shape=partialRectangle;collapsible=0;dropTarget=0;pointerEvents=0;fillColor=none;top=0;left=0;bottom=0;right=0;points=[[0,0.5],[1,0.5]];portConstraint=eastwest;" vertex="1" parent="dDyjCE8Tok5BIl-7DvfX-27">
          <mxGeometry y="90" width="180" height="30" as="geometry" />
        </mxCell>
        <mxCell id="dDyjCE8Tok5BIl-7DvfX-35" value="" style="shape=partialRectangle;connectable=0;fillColor=none;top=0;left=0;bottom=0;right=0;editable=1;overflow=hidden;" vertex="1" parent="dDyjCE8Tok5BIl-7DvfX-34">
          <mxGeometry width="30" height="30" as="geometry" />
        </mxCell>
        <mxCell id="dDyjCE8Tok5BIl-7DvfX-36" value="EquipmentDetail" style="shape=partialRectangle;connectable=0;fillColor=none;top=0;left=0;bottom=0;right=0;align=left;spacingLeft=6;overflow=hidden;" vertex="1" parent="dDyjCE8Tok5BIl-7DvfX-34">
          <mxGeometry x="30" width="150" height="30" as="geometry" />
        </mxCell>
      </root>
    </mxGraphModel>
  </diagram>
</mxfile>
